<?xml version="1.0" encoding="utf-8"?>
<!-- Generator: Adobe Illustrator 22.1.0, SVG Export Plug-In . SVG Version: 6.00 Build 0)  -->
<svg version="1.1" id="Layer_1" xmlns="http://www.w3.org/2000/svg" xmlns:xlink="http://www.w3.org/1999/xlink" x="0px" y="0px"
	 viewBox="0 0 300 53.2" style="enable-background:new 0 0 300 53.2;" xml:space="preserve">
<style type="text/css">
	.st0{fill:#2A2A2A;}
	.st1{fill:url(#SVGID_1_);}
</style>
<path class="st0" d="M104.6,8.9v27.4h4.8v-8.7l7.6,8.7h5.8v-0.4l-9-9.9l7.9-8.8V17h-5.7l-6.5,7.8V8.9H104.6z M144.1,28.3
	c0.7-8-3.3-12-9.8-12c-6.3,0-10.3,4.2-10.3,10.1c0,6.2,4,10.3,10.6,10.3c3.1,0.1,6.1-1.1,8.4-3.2l-3-3c-1.5,1.2-3.3,1.9-5.2,1.8
	c-3.4,0-5.4-1.7-5.7-4.1L144.1,28.3z M129.1,24.3c0.7-2.5,2.8-3.8,5.4-3.8s4.7,1.3,5,3.8H129.1z M161.1,16.9l-3.5,8.5l-2,5.4
	l-1.9-5.5l-2.9-8.4h-5.5l7.7,19l-3.6,8.4h5.2l11.8-27.4L161.1,16.9z M184.2,18.9c-2.1-1.8-4.8-2.7-7.5-2.5c-3.5,0-8.1,1.6-8.1,6.1
	s4.4,5.7,8,6c2.8,0.2,3.8,0.7,3.8,2s-1.7,2.3-3.5,2.3c-2.5-0.1-4.8-1-6.7-2.7l-2.4,3.4c2.8,2.9,5.9,3.5,9,3.5c5.5,0,8.3-2.9,8.3-6.4
	c0-5.1-4.6-6-8.3-6.2c-2.5-0.2-3.6-0.9-3.6-2.1s1.3-1.9,3.5-1.9c1.8-0.1,3.5,0.5,4.8,1.7L184.2,18.9z M190.2,12v5h-3.6v4.1h3.6v8.3
	c0,4.8,2.8,7.2,6.9,7.1c1.4,0,2.7-0.3,4-0.8l-1.4-4.1c-0.7,0.4-1.5,0.6-2.3,0.6c-1.5,0-2.5-0.9-2.5-2.8v-8.3h5.4V17h-5.4v-5.5
	L190.2,12z M212.9,16.6c-6.2,0-10,4.5-10,10.1s3.8,10.1,10,10.1S223,32.2,223,26.6c0.1-5.4-4.1-9.9-9.5-10
	C213.3,16.6,213.1,16.6,212.9,16.6z M212.9,20.9c3,0.1,5.4,2.7,5.3,5.7c0,0,0,0,0,0.1c0,2.9-1.8,5.7-5.3,5.7s-5.2-2.8-5.2-5.7
	S209.5,20.9,212.9,20.9L212.9,20.9z M245.3,36.3V26.1c0-6.1-3.6-9.5-8.2-9.5c-2.4,0-4.7,1.1-6.4,2.9l-0.3-2.6h-4.2v19.4h4.7v-9.9
	c0-2.9,2-5.4,4.9-5.4s4.7,2.2,4.7,5.2v10.1L245.3,36.3z M268.6,28.4c0.8-8-3.3-12-9.8-12c-6.3,0-10.3,4.2-10.3,10.1
	c0,6.2,4,10.3,10.6,10.3c3.1,0.1,6.1-1.1,8.3-3.2l-3.1-3c-1.5,1.2-3.3,1.9-5.2,1.8c-3.4,0-5.4-1.7-5.8-4.1L268.6,28.4z M253.6,24.4
	c0.7-2.4,3-4,5.4-3.8c2.8,0,4.7,1.3,5,3.8H253.6z"/>
<linearGradient id="SVGID_1_" gradientUnits="userSpaceOnUse" x1="43.5222" y1="12.1859" x2="72.3756" y2="25.5759">
	<stop  offset="0" style="stop-color:#EA1F59"/>
	<stop  offset="1" style="stop-color:#FA9169"/>
</linearGradient>
<path class="st1" d="M63.1,53.1C34.8,40.3,40.5,25.6,40.5,1.2C40.5,0.6,41,0,41.7,0h0h43.9c0.7,0,1.2,0.6,1.2,1.2v0
	c0,24.4,5.6,39.1-22.7,51.9C63.8,53.3,63.5,53.3,63.1,53.1z M42.7,11.6c-0.6,17.9-1,28.9,21,39c21.9-10.1,21.5-21.1,20.9-39
	c-0.1-2.9-0.2-6-0.2-9.2H42.9C42.9,5.6,42.8,8.7,42.7,11.6z"/>
</svg>
