<?xml version="1.0" standalone="no"?>
<!DOCTYPE svg PUBLIC "-//W3C//DTD SVG 20010904//EN"
 "http://www.w3.org/TR/2001/REC-SVG-20010904/DTD/svg10.dtd">
<svg version="1.0" xmlns="http://www.w3.org/2000/svg"
 width="209.000000pt" height="209.000000pt" viewBox="0 0 209.000000 209.000000"
 preserveAspectRatio="xMidYMid meet">
<metadata>
Created by potrace 1.11, written by Peter Selinger 2001-2013
</metadata>
<g transform="translate(0.000000,209.000000) scale(0.100000,-0.100000)"
fill="#000000" stroke="none">
<path d="M1362 1794 c-27 -13 -64 -43 -83 -67 -60 -75 -370 -430 -422 -484
-28 -29 -55 -53 -59 -53 -5 0 -7 55 -6 123 l3 122 88 3 87 3 0 88 0 88 -85 5
c-47 2 -86 6 -89 9 -2 2 -6 40 -10 83 -3 44 -9 83 -14 88 -5 5 -56 7 -113 6
l-104 -3 -3 -86 -3 -87 -31 -6 c-17 -3 -57 -6 -89 -6 l-59 0 0 -95 0 -95 95 0
95 0 0 -547 -1 -548 116 -3 115 -3 0 346 c0 190 3 345 8 344 4 0 89 -93 190
-207 l182 -207 -47 -40 c-27 -22 -68 -59 -92 -81 l-45 -42 44 -53 c24 -30 47
-58 51 -63 4 -5 49 24 99 63 50 40 97 74 105 77 8 4 19 -6 29 -23 26 -51 89
-99 146 -113 50 -12 224 -9 237 4 3 3 -41 58 -98 122 -160 179 -154 150 -54
233 47 40 85 77 85 82 0 6 -21 37 -46 70 -31 41 -50 57 -57 51 -7 -5 -50 -39
-95 -76 -46 -37 -88 -66 -93 -64 -11 4 -319 349 -319 358 0 3 135 160 300 349
165 189 299 345 298 346 -2 1 -49 5 -105 8 -95 5 -107 3 -151 -19z"/>
</g>
</svg>
