<?xml version="1.0" encoding="UTF-8"?>
<svg viewBox="0 0 228.66 53.22" xmlns="http://www.w3.org/2000/svg">
<defs>
<linearGradient id="a" x1="43.52" x2="72.38" y1="12.19" y2="25.58" gradientUnits="userSpaceOnUse">
<stop stop-color="#ea1f59" offset="0"/>
<stop stop-color="#fa9169" offset="1"/>
</linearGradient>
</defs>
<title>keystone-logo-web</title>
<path transform="translate(-40)" d="M104.59,8.87V36.28h4.79V27.55l7.56,8.73h5.77v-.36l-9-9.86,7.87-8.82V17h-5.71l-6.5,7.76V8.87Zm39.48,19.46c.73-7.95-3.3-11.95-9.77-11.95-6.3,0-10.3,4.23-10.3,10.1,0,6.19,4,10.31,10.64,10.31A11.72,11.72,0,0,0,143,33.61l-3-3a7.94,7.94,0,0,1-5.18,1.82c-3.36,0-5.43-1.74-5.74-4.12Zm-15-4c.72-2.5,2.82-3.76,5.43-3.76s4.7,1.26,5,3.76Zm32.08-7.4-3.52,8.46-2,5.35-1.85-5.46-2.94-8.35H145.3l7.7,19-3.59,8.37h5.24l11.82-27.39Zm23.08,2a10.41,10.41,0,0,0-7.54-2.55c-3.52,0-8.14,1.57-8.14,6.05s4.36,5.71,8,6c2.75.17,3.84.7,3.84,2s-1.68,2.35-3.5,2.29A10.58,10.58,0,0,1,170.23,30l-2.36,3.41c2.83,2.94,5.88,3.45,9,3.45,5.52,0,8.29-2.94,8.29-6.36,0-5.12-4.62-6-8.26-6.19-2.46-.17-3.61-.87-3.61-2.13s1.26-1.9,3.53-1.9A6.55,6.55,0,0,1,181.61,22ZM190.16,12v5h-3.61v4.12h3.61v8.34c0,4.85,2.75,7.23,6.92,7.06a10.4,10.4,0,0,0,4-.81l-1.4-4.09a5.27,5.27,0,0,1-2.3.59c-1.51,0-2.52-.9-2.52-2.75V21.11h5.38V17h-5.35V11.5Zm22.74,4.62c-6.16,0-10,4.54-10,10.08s3.75,10.05,10,10.05S223,32.2,223,26.61a9.75,9.75,0,0,0-9.49-10Zm0,4.34a5.48,5.48,0,0,1,5.27,5.68v.06c0,2.94-1.77,5.69-5.27,5.69s-5.23-2.75-5.23-5.69,1.81-5.78,5.25-5.78Zm32.4,15.37V26.12c0-6.08-3.64-9.46-8.2-9.46a8.77,8.77,0,0,0-6.36,2.88l-.31-2.63H226.2V36.28h4.73V26.4c0-2.94,2-5.4,4.93-5.4s4.67,2.24,4.67,5.18v10.1Zm23.27-7.95c.75-7.95-3.28-11.95-9.75-11.95-6.27,0-10.27,4.22-10.27,10.1,0,6.19,4,10.31,10.61,10.31a11.84,11.84,0,0,0,8.34-3.22l-3.06-3a7.88,7.88,0,0,1-5.18,1.82c-3.36,0-5.43-1.74-5.76-4.12Zm-15-4A5.21,5.21,0,0,1,259,20.61c2.75,0,4.71,1.26,5,3.76Z" fill="#2a2a2a"/>
<path transform="translate(-40)" d="m63.13 53.11c-28.31-12.79-22.67-27.5-22.67-51.88a1.23 1.23 0 0 1 1.23-1.23h43.89a1.23 1.23 0 0 1 1.23 1.23c0 24.39 5.64 39.1-22.67 51.88a1.27 1.27 0 0 1-1.01 0zm-20.44-41.5c-0.59 17.91-1 28.93 21 39 21.9-10.06 21.54-21.08 20.94-39-0.1-2.92-0.2-6-0.23-9.17h-41.48c-0.03 3.17-0.13 6.28-0.23 9.17z" fill="url(#a)"/>
</svg>
