<svg xmlns="http://www.w3.org/2000/svg" viewBox="0 0 510.61 102.77"><title>Keystone.sh</title><path d="M10.56,83.22V21.66H0V11.05l10.46-.53V.53H23.53l.51,10L34.45,11V21.35H24.15V35.42a45,45,0,0,0,3.31-3.08c7.91-9,15.94-17.91,23.6-27.13,3-3.61,6-5.81,10.93-5.07,2.59.4,5.29.07,9.25.07L36.72,39.57,54.86,59.86,66,51l5.73,7.62L61.61,67.21c4.65,5.28,9.1,10.33,14.1,16C66.1,84,57.12,86,52.2,75L40.71,84l-6-7.35c3.47-3,6.74-5.75,10.39-8.86L24,44.14V83.22Z"/><path d="M140.78,26.68a5.74,5.74,0,0,1,1-.35c15.87-1.12,15.85-1.12,20,14.13a274.68,274.68,0,0,0,8.18,26.43c1.17-4,2.38-8.06,3.5-12.1,2.34-8.49,4.55-17,7-25.46.36-1.23,1.85-2.92,2.92-3,4.6-.33,9.23-.14,14.42-.14-4.6,13.74-9,26.94-13.44,40.14-2,6-3.93,12-6.12,17.92-5.61,15.17-14.86,20.45-31.43,17.9V90.65l4.81-.37c6.48-.54,9.41-4.86,7.29-11.06-5.49-16-11.08-32-16.62-48C141.81,29.77,141.35,28.37,140.78,26.68Z"/><path d="M134.62,58H96.9C97,64.67,99.62,69,104.45,70.78c5,1.88,10.36.24,14.39-4a7.73,7.73,0,0,1,4.57-2.05c3.42-.31,6.89-.09,10.37-.09C133.13,74.22,125.84,81,114.67,83c-12.91,2.3-24.94-2.82-30.06-12.77-6.18-12-4-30,4.86-38.2s19.25-8.81,29.85-4.92c10.14,3.73,14.47,12.18,15.27,22.59C134.78,52.26,134.62,54.88,134.62,58ZM119.3,48c-1.36-8.07-5.29-11.5-12-11-5.78.44-9.66,4.84-9.57,11Z"/><path d="M481.74,58H443.67c-.31,5.91,1.79,10,6.62,12.27,4.53,2.14,9.95,2.37,12.95-1.49,3.61-4.65,7.81-4.11,12.35-4.12,1.61,0,3.23.15,5.35.25-1.25,8.55-6.15,13.65-13.39,16.21C456.82,84.92,446,84.89,437,77.07c-9.86-8.5-10.37-20-8-31.72,2.74-13.44,12.91-20.63,27.38-20.23,13.36.37,22.34,8.12,24.62,21.56C481.58,50.21,481.48,53.85,481.74,58Zm-16-10.1c-.37-6.77-4-10.67-9.89-10.94-6.57-.3-10.7,3.48-11.73,10.94Z"/><path d="M327.72,25.08C345,25,355.54,35.84,355.64,53.73c.11,18.5-10.11,29.47-27.5,29.54-17.56.07-27.91-10.72-27.91-29.11C300.22,36.1,310.56,25.16,327.72,25.08Zm12.75,29.13c-1.18-4-1.71-8.06-3.53-11.44-4.12-7.65-13.93-7.69-18.07-.05a23.26,23.26,0,0,0,0,22.92c4.07,7.6,14,7.59,18.1,0C338.76,62.27,339.28,58.19,340.47,54.21Z"/><path d="M366.2,81.92V26.58h14.54c.18,2.16.37,4.4.66,7.79,4.9-7,11.13-9.52,18.66-9.18,9.58.44,16.95,6.43,17.39,15.94.63,13.44.16,26.94.16,40.75H402.42c0-3.94,0-8,0-12.09-.06-7.16.19-14.35-.33-21.48-.48-6.63-4-9.79-9.61-10-5.41-.19-10,3.66-10.5,9.94-.57,6.62-.3,13.31-.36,20,0,4.47,0,8.94,0,13.69Z"/><path d="M251.16,43.62c-3.72,0-7.52.18-11.29-.11a5.24,5.24,0,0,1-3.19-2.35c-3.11-4.74-8.73-6.57-13.32-3.71A6.94,6.94,0,0,0,220.3,42c-.08,1.31,1.64,3.43,3,4a99.53,99.53,0,0,0,11,3.07c3.05.82,6.15,1.45,9.12,2.5,5.38,1.9,9.21,5.38,9.74,11.43S252,74.17,247.06,78c-8.89,6.87-26.7,7.3-35.9.79a16.94,16.94,0,0,1-7.56-13.92c4.56,0,8.85-.14,13.12.1,1,.06,2.15,1.25,2.82,2.2,3.29,4.71,8.78,6.55,14,4,1.68-.83,3.73-2.94,3.77-4.52s-2-3.87-3.68-4.43c-5-1.71-10.3-2.58-15.4-4.05-9.39-2.71-13.68-8-13.45-16.12.21-7.79,5.34-13.71,14.11-15.87,7.42-1.82,14.87-1.83,22,1.16S251.83,36.31,251.16,43.62Z"/><path d="M267.26,38.35,259.79,38c-.12-1.06-.27-1.86-.28-2.65,0-2.82,0-5.63,0-8.86l7.56-.57V13.71h15.66V26.08h10V37.91l-9.74.48c0,9-.25,18,.12,26.89.16,4,1.91,4.58,9.21,5.24.18.26.49.52.52.8,1.05,11.18.81,11.43-10.43,10.9-10.73-.51-14.93-4.72-15.11-15.58C267.14,57.34,267.26,48,267.26,38.35Z"/><path d="M510.61,74.18a8.55,8.55,0,0,1-17.09,0A8.39,8.39,0,0,1,502,65.64,8.48,8.48,0,0,1,510.61,74.18Z"/></svg>